<?xml version="1.0" encoding="UTF-8"?>
<svg width="29px" height="31px" viewBox="0 0 29 31" version="1.1" xmlns="http://www.w3.org/2000/svg" xmlns:xlink="http://www.w3.org/1999/xlink">
    <!-- Generator: Sketch 47.1 (45422) - http://www.bohemiancoding.com/sketch -->
    <title>Instagram</title>
    <desc>Created with Sketch.</desc>
    <defs></defs>
    <g id="Symbols" stroke="none" stroke-width="1" fill="none" fill-rule="evenodd">
        <g id="footer/desktop_light" transform="translate(-711.000000, -187.000000)" fill="#C5C3C7">
            <g id="Stacked-Group-2-Copy-2" transform="translate(650.000000, 113.000000)">
                <g id="Stacked-Group" transform="translate(0.000000, 74.000000)">
                    <path d="M86.5528735,0 L64.4471265,0 C62.543218,0 61,1.64541909 61,3.676404 L61,27.323596 C61,29.3537354 62.543218,31 64.4471265,31 L86.5528735,31 C88.456782,31 90,29.3537354 90,27.323596 L90,3.676404 C90,1.64541909 88.456782,0 86.5528735,0 L86.5528735,0 Z M81.8441208,4.84324796 C81.8441208,4.30886725 82.2498977,3.87510569 82.7498023,3.87510569 L85.4684287,3.87510569 C85.9691242,3.87510569 86.3749011,4.30886725 86.3749011,4.84324796 L86.3749011,7.75021138 C86.3749011,8.2845921 85.9691242,8.71835365 85.4684287,8.71835365 L82.7498023,8.71835365 C82.2498977,8.71835365 81.8441208,8.2845921 81.8441208,7.75021138 L81.8441208,4.84324796 L81.8441208,4.84324796 Z M75.533617,9.58841339 C78.613725,9.58841339 81.1108747,12.2518615 81.1108747,15.5359354 C81.1108747,18.8208548 78.613725,21.4834574 75.533617,21.4834574 C72.4543,21.4834574 69.9571503,18.8208548 69.9571503,15.5359354 C69.9571503,12.2518615 72.4543,9.58841339 75.533617,9.58841339 L75.533617,9.58841339 Z M87.2813736,27.1248943 C87.2813736,27.659275 86.8755967,28.0938821 86.3749011,28.0938821 L64.6250989,28.0938821 C64.1244033,28.0938821 63.7186264,27.659275 63.7186264,27.1248943 L63.7186264,12.5934593 L67.3437253,12.5934593 C66.8715053,13.3197774 66.7117257,14.6751766 66.7117257,15.5359354 C66.7117257,20.7233178 70.6698306,24.944249 75.533617,24.944249 C80.3981944,24.944249 84.3562993,20.7233178 84.3562993,15.5359354 C84.3562993,14.6751766 84.241606,13.3409159 83.6562747,12.5934593 L87.2813736,12.5934593 L87.2813736,27.1248943 L87.2813736,27.1248943 Z" id="Instagram"></path>
                </g>
            </g>
        </g>
    </g>
</svg>