<?xml version="1.0" encoding="UTF-8"?>
<svg width="25px" height="22px" viewBox="0 0 25 22" version="1.1" xmlns="http://www.w3.org/2000/svg" xmlns:xlink="http://www.w3.org/1999/xlink">
    <!-- Generator: Sketch 47.1 (45422) - http://www.bohemiancoding.com/sketch -->
    <title>Fill 88</title>
    <desc>Created with Sketch.</desc>
    <defs></defs>
    <g id="Symbols" stroke="none" stroke-width="1" fill="none" fill-rule="evenodd">
        <g id="footer/desktop_light" transform="translate(-772.000000, -191.000000)" fill="#C5C3C7">
            <g id="Stacked-Group-2-Copy-2" transform="translate(650.000000, 113.000000)">
                <g id="Stacked-Group" transform="translate(0.000000, 74.000000)">
                    <path d="M122.630252,11.0547471 L127.502846,11.0547471 L127.502846,26 L122.630252,26 L122.630252,11.0547471 Z M140.816075,10.9110806 C144.279073,10.9110806 147,13.0608302 147,17.690303 L147,26 L141.47479,26 L141.47479,18.266281 C141.47479,16.2418297 140.610735,14.8602696 138.709813,14.8602696 C137.256167,14.8602696 136.447682,15.7924618 136.071564,16.6911975 C135.930604,17.0139552 135.952291,17.463323 135.952291,17.9126908 L135.952291,26 L130.478585,26 C130.478585,26 130.549065,12.3005129 130.478585,11.0547471 L135.952291,11.0547471 L135.952291,13.4006441 C136.275549,12.3746422 138.024668,10.9110806 140.816075,10.9110806 Z M124.976416,4 C126.774329,4 127.879642,5.11587548 127.914882,6.59058922 C127.914882,8.0390625 126.774329,9.18577052 124.942532,9.18577052 L124.907292,9.18577052 C123.143941,9.18577052 122,8.04299857 122,6.59452529 C122,5.11849952 123.177148,4 124.976416,4 Z" id="Fill-88"></path>
                </g>
            </g>
        </g>
    </g>
</svg>