<?xml version="1.0" encoding="UTF-8"?>
<svg width="140px" height="45px" viewBox="0 0 140 45" version="1.1" xmlns="http://www.w3.org/2000/svg" xmlns:xlink="http://www.w3.org/1999/xlink">
    <!-- Generator: Sketch 47.1 (45422) - http://www.bohemiancoding.com/sketch -->
    <title>logo/light</title>
    <desc>Created with Sketch.</desc>
    <defs></defs>
    <g id="Symbols" stroke="none" stroke-width="1" fill="none" fill-rule="evenodd" opacity="0.3">
        <g id="footer/desktop_light" transform="translate(-170.000000, -36.000000)" fill-rule="nonzero" fill="#120B17">
            <g id="logo/light" transform="translate(170.000000, 36.000000)">
                <path d="M6.00339921,22.0692073 C4.51043478,22.0692073 3.29470356,23.2737805 3.29470356,24.7554878 L3.29470356,38.8832927 C3.29470356,40.099939 2.69873518,40.099939 2.44252964,40.099939 C1.20023715,40.099939 0.263952569,41.0564634 0.263952569,42.3235976 C0.263952569,43.712561 1.40996047,44.5763415 3.25375494,44.5763415 L3.31573123,44.5763415 C6.79581028,44.5763415 8.7115415,42.565061 8.7115415,38.9140244 L8.7115415,24.7554878 C8.71209486,23.2737805 7.49636364,22.0692073 6.00339921,22.0692073 Z" id="Shape"></path>
                <path d="M6.00339921,15.192439 C4.2426087,15.192439 3.01304348,16.2340244 3.01304348,17.725061 L3.01304348,17.7865244 C3.01304348,19.295122 4.2426087,20.3487805 6.00339921,20.3487805 C7.76363636,20.3487805 8.99375494,19.295122 8.99375494,17.7865244 L8.99375494,17.725061 C8.99375494,16.2340244 7.76363636,15.192439 6.00339921,15.192439 Z" id="Shape"></path>
                <path d="M20.6541502,21.9462805 C15.743083,21.9462805 12.04,25.8053049 12.04,30.9221341 L12.04,30.9830488 C12.04,36.1470732 15.8598419,39.8957927 21.1233992,39.8957927 C23.4773913,39.8957927 25.5049012,39.1922561 27.1594466,37.7967073 C27.4942292,37.4937805 27.8937549,36.962561 27.8937549,36.1569512 C27.8937549,34.9084756 26.9574704,33.9662195 25.7151779,33.9662195 C25.1806324,33.9662195 24.7888538,34.092439 24.36,34.4035976 C23.3971542,35.1104268 22.358498,35.455061 21.1853755,35.455061 C19.3238735,35.455061 18.0367589,34.5385976 17.5243478,32.8642683 L26.495415,32.8642683 C27.9745455,32.8642683 29.0486166,31.7727439 29.0486166,30.2690854 C29.04917,27.0515854 26.7704348,21.9462805 20.6541502,21.9462805 Z M20.6541502,26.3892073 C22.2766008,26.3892073 23.4281423,27.4527439 23.7900395,29.2571341 L17.4396838,29.2571341 C17.8790514,27.4275 19.0350198,26.3892073 20.6541502,26.3892073 Z" id="Shape"></path>
                <path d="M35.272253,15.6095122 C33.7787352,15.6095122 32.5635573,16.8157317 32.5635573,18.297439 L32.5635573,37.0245732 C32.5635573,38.5062805 33.7787352,39.7114024 35.272253,39.7114024 C36.7657708,39.7114024 37.981502,38.5068293 37.981502,37.0245732 L37.981502,18.297439 C37.981502,16.8157317 36.7657708,15.6095122 35.272253,15.6095122 Z" id="Shape"></path>
                <path d="M52.4225296,21.9462805 C50.4237945,21.9462805 48.7947036,22.662439 47.4655336,24.129878 C47.18,22.9489024 46.1070356,22.0692073 44.8309881,22.0692073 C43.3363636,22.0692073 42.1211858,23.2737805 42.1211858,24.7554878 L42.1211858,41.9828049 C42.1211858,43.4639634 43.3363636,44.6696341 44.8309881,44.6696341 C46.3245059,44.6696341 47.5396838,43.4645122 47.5396838,41.9828049 L47.5396838,37.8757317 C48.9009486,39.2087195 50.4719368,39.8354268 52.4225296,39.8354268 C54.5468775,39.8354268 56.5146245,39.0144512 57.9633202,37.5223171 C59.5442688,35.8940854 60.3798419,33.610061 60.3798419,30.9226829 L60.3798419,30.8584756 C60.3792885,25.007378 56.3768379,21.9462805 52.4225296,21.9462805 Z M54.963004,30.9226829 C54.963004,33.3856098 53.3820553,35.1740854 51.204585,35.1740854 C49.0442688,35.1740854 47.4771542,33.3856098 47.4771542,30.9226829 L47.4771542,30.8584756 C47.4771542,28.3955488 49.0442688,26.6070732 51.204585,26.6070732 C53.3466403,26.6070732 54.963004,28.4339634 54.963004,30.8584756 L54.963004,30.9226829 Z" id="Shape"></path>
                <path d="M64.1349407,24.5387195 C64.1349407,23.4867073 64.9467194,22.6492683 66.00917,22.6492683 C67.0710672,22.6492683 67.9143874,23.4867073 67.9143874,24.5387195 L67.9143874,25.3135976 C68.9768379,23.8582317 70.413913,22.4939634 72.9444269,22.4939634 C75.3183399,22.4939634 77.0066403,23.6414634 77.8809486,25.3761585 C79.1924111,23.6414634 80.941581,22.4939634 83.4405534,22.4939634 C87.0351779,22.4939634 89.2209486,24.7554878 89.2209486,28.7528049 L89.2209486,37.489939 C89.2209486,38.5430488 88.40917,39.3497561 87.346166,39.3497561 C86.2837154,39.3497561 85.4409486,38.5430488 85.4409486,37.489939 L85.4409486,29.8992073 C85.4409486,27.2963415 84.2224506,25.9029878 82.0975494,25.9029878 C80.0362846,25.9029878 78.567668,27.327622 78.567668,29.9606707 L78.567668,37.4904878 C78.567668,38.5435976 77.7249012,39.3503049 76.6928854,39.3503049 C75.6309881,39.3503049 74.787668,38.5435976 74.787668,37.4904878 L74.787668,29.8679268 C74.787668,27.327622 73.5376285,25.9029878 71.4453755,25.9029878 C69.3509091,25.9029878 67.9143874,27.4510976 67.9143874,29.9606707 L67.9143874,37.4904878 C67.9143874,38.5435976 67.0710672,39.3503049 66.00917,39.3503049 C64.9771542,39.3503049 64.1349407,38.5435976 64.1349407,37.4904878 L64.1349407,24.5387195 L64.1349407,24.5387195 Z" id="Shape"></path>
                <path d="M94.0921739,17.9868293 C94.0921739,16.8722561 95.0284585,16.1582927 96.2469565,16.1582927 C97.4660079,16.1582927 98.4022925,16.8722561 98.4022925,17.9868293 L98.4022925,18.1728659 C98.4022925,19.2879878 97.4665613,20.0315854 96.2469565,20.0315854 C95.0290119,20.0315854 94.0921739,19.2879878 94.0921739,18.1728659 L94.0921739,17.9868293 Z M94.3727273,24.5387195 C94.3727273,23.4867073 95.1845059,22.6492683 96.2469565,22.6492683 C97.3099605,22.6492683 98.1527273,23.4867073 98.1527273,24.5387195 L98.1527273,37.4904878 C98.1527273,38.5435976 97.3099605,39.3503049 96.2469565,39.3503049 C95.2160474,39.3503049 94.3727273,38.5435976 94.3727273,37.4904878 L94.3727273,24.5387195 Z" id="Shape"></path>
                <path d="M120.75747,0.513109756 C109.817549,0.513109756 101.956522,5.9120122 101.956522,16.0820122 C101.956522,21.3892683 104.099684,25.3964634 107.702609,28.0152439 C107.464111,29.3026829 106.81502,31.6585976 105.429407,34.0880488 C103.682451,37.1513415 110.95913,33.9585366 114.362846,30.9495732 C116.332806,31.4138415 118.478182,31.6498171 120.758024,31.6498171 C131.697391,31.6498171 139.558419,26.3041463 139.558419,16.0814634 C139.557312,5.85713415 131.696285,0.513109756 120.75747,0.513109756 Z M123.760553,23.2309756 C123.760553,24.6671341 122.646087,25.749878 121.166957,25.749878 C119.687273,25.749878 118.572806,24.6671341 118.572806,23.2309756 L118.572806,23.1771951 C118.572806,21.7404878 119.687273,20.6560976 121.166957,20.6560976 C122.646087,20.6560976 123.760553,21.7404878 123.760553,23.1771951 L123.760553,23.2309756 Z M123.812569,8.17189024 L122.671542,18.0751829 C122.57581,18.9312805 121.985929,19.4833537 121.16751,19.4833537 C120.349644,19.4833537 119.758656,18.9312805 119.663478,18.0746341 L118.520791,8.17463415 C118.469881,7.68128049 118.596601,7.24115854 118.877154,6.93439024 C119.121186,6.66493902 119.472569,6.51731707 119.866008,6.51731707 L122.469012,6.51731707 C122.861897,6.51731707 123.213834,6.66493902 123.458419,6.93439024 C123.737312,7.2422561 123.864585,7.68182927 123.812569,8.17189024 Z" id="Shape"></path>
            </g>
        </g>
    </g>
</svg>