<?xml version="1.0" encoding="UTF-8"?>
<svg width="28px" height="22px" viewBox="0 0 28 22" version="1.1" xmlns="http://www.w3.org/2000/svg" xmlns:xlink="http://www.w3.org/1999/xlink">
    <!-- Generator: Sketch 47.1 (45422) - http://www.bohemiancoding.com/sketch -->
    <title>Twitter</title>
    <desc>Created with Sketch.</desc>
    <defs></defs>
    <g id="Symbols" stroke="none" stroke-width="1" fill="none" fill-rule="evenodd">
        <g id="footer/desktop_light" transform="translate(-829.000000, -191.000000)" fill="#C5C3C7">
            <g id="Stacked-Group-2-Copy-2" transform="translate(650.000000, 113.000000)">
                <g id="Stacked-Group" transform="translate(0.000000, 74.000000)">
                    <path d="M206.227725,4.40671558 C205.116786,5.04251706 203.889221,5.50491814 202.577177,5.75233091 C201.532027,4.67386498 200.038315,4 198.384615,4 C195.214776,4 192.642272,6.48681555 192.642272,9.55374708 C192.642272,9.98936272 192.691613,10.4115857 192.790297,10.8183012 C188.0161,10.5863958 183.783916,8.37800775 180.949003,5.01361699 C180.454089,5.83691647 180.171495,6.79202845 180.171495,7.80916984 C180.171495,9.73490116 181.185246,11.435071 182.727552,12.431066 C181.787066,12.4042805 180.899661,12.1519336 180.123648,11.7388741 L180.123648,11.8065426 C180.123648,14.4984781 182.10405,16.7442248 184.73412,17.252443 C184.252663,17.3828458 183.744293,17.4483996 183.220223,17.4483996 C182.850159,17.4483996 182.489066,17.4145654 182.139188,17.3497164 C182.870344,19.555285 184.990548,21.1617058 187.504739,21.2047035 C185.539289,22.6948191 183.060983,23.5829675 180.370358,23.5829675 C179.906843,23.5829675 179.448562,23.5575919 179,23.5068405 C181.541852,25.080132 184.562919,26 187.806024,26 C198.373401,26 204.150135,17.5386242 204.150135,10.198712 C204.150135,9.95693826 204.145649,9.71586941 204.13593,9.47902983 C205.258083,8.69590849 206.232959,7.71824036 207,6.60453045 C205.971297,7.04578514 204.863349,7.34465413 203.701573,7.47858127 C204.88802,6.79202845 205.798601,5.70369421 206.227725,4.40671558" id="Twitter"></path>
                </g>
            </g>
        </g>
    </g>
</svg>